<svg width="301" height="105" viewBox="0 0 301 105" fill="none" xmlns="http://www.w3.org/2000/svg">
<g>
<path d="M183.872 36.5062C183.973 39.4356 184.731 41.6411 186.145 43.1227C187.593 44.6042 189.411 45.345 191.6 45.345C192.913 45.345 194.108 45.1598 195.186 44.7894C196.297 44.3854 197.475 43.7793 198.721 42.9711L200.691 45.7996C199.445 46.7761 198.014 47.5337 196.398 48.0724C194.815 48.6112 193.216 48.8805 191.6 48.8805C187.761 48.8805 184.764 47.6347 182.609 45.143C180.488 42.6176 179.427 39.2504 179.427 35.0415C179.427 32.3814 179.899 30.0075 180.842 27.9199C181.784 25.7986 183.131 24.1486 184.882 22.9701C186.633 21.7579 188.67 21.1519 190.994 21.1519C194.361 21.1519 197.004 22.3304 198.923 24.6874C200.876 27.0107 201.853 30.1927 201.853 34.2333C201.853 35.0078 201.819 35.7654 201.752 36.5062H183.872ZM191.044 24.6369C188.99 24.6369 187.323 25.3777 186.044 26.8592C184.764 28.3071 184.04 30.4453 183.872 33.2737H197.711C197.677 30.4789 197.071 28.3408 195.893 26.8592C194.714 25.3777 193.098 24.6369 191.044 24.6369Z" fill="#03FF88"/>
</g>
<g>
<path d="M161.314 45.3955C163.335 45.3955 164.934 45.0083 166.113 44.2338C167.291 43.4594 167.88 42.4324 167.88 41.1529C167.88 40.2774 167.729 39.5703 167.426 39.0316C167.123 38.4591 166.517 37.9541 165.607 37.5163C164.698 37.0449 163.318 36.5735 161.466 36.1021C158.368 35.3277 156.078 34.4017 154.597 33.3242C153.115 32.213 152.375 30.5799 152.375 28.425C152.375 26.2026 153.3 24.4349 155.152 23.1217C157.004 21.8085 159.446 21.1519 162.476 21.1519C166.18 21.1519 169.412 22.1283 172.173 24.0813L170.254 27.0107C169.143 26.2363 167.981 25.647 166.769 25.243C165.557 24.8052 164.16 24.5864 162.577 24.5864C158.738 24.5864 156.819 25.748 156.819 28.0714C156.819 28.8795 157.021 29.5361 157.425 30.0412C157.863 30.5463 158.553 31.0008 159.496 31.4049C160.473 31.7753 161.92 32.2299 163.84 32.7686C166.735 33.5431 168.89 34.5364 170.305 35.7486C171.753 36.9271 172.477 38.6612 172.477 40.9508C172.477 43.6109 171.399 45.5975 169.244 46.9107C167.089 48.2239 164.446 48.8805 161.314 48.8805C157.139 48.8805 153.671 47.6852 150.91 45.2945L153.284 42.5166C154.361 43.392 155.59 44.0992 156.971 44.6379C158.351 45.143 159.799 45.3955 161.314 45.3955Z" fill="#03FF88"/>
</g>
<g>
<path d="M143.05 42.5166C143.05 43.5604 143.219 44.3349 143.555 44.8399C143.892 45.3113 144.448 45.6649 145.222 45.9006L144.161 48.931C141.569 48.5943 139.952 47.3316 139.313 45.143C138.37 46.3552 137.174 47.2811 135.727 47.9209C134.312 48.5607 132.73 48.8805 130.979 48.8805C128.319 48.8805 126.214 48.1398 124.665 46.6582C123.15 45.1766 122.393 43.19 122.393 40.6983C122.393 37.9709 123.453 35.8664 125.575 34.3849C127.73 32.9033 130.811 32.1625 134.817 32.1625H138.757V29.9907C138.757 28.1051 138.218 26.7582 137.141 25.9501C136.063 25.1083 134.498 24.6874 132.444 24.6874C130.423 24.6874 128.117 25.142 125.524 26.0511L124.362 22.8186C127.494 21.7074 130.406 21.1519 133.1 21.1519C136.333 21.1519 138.791 21.9095 140.474 23.4247C142.192 24.9399 143.05 27.0444 143.05 29.7382V42.5166ZM132.04 45.6986C133.353 45.6986 134.599 45.3618 135.777 44.6884C136.989 44.015 137.983 43.089 138.757 41.9105V35.092H134.918C132.09 35.092 130.053 35.5634 128.807 36.5062C127.561 37.449 126.938 38.8295 126.938 40.6478C126.938 44.015 128.639 45.6986 132.04 45.6986Z" fill="#03FF88"/>
</g>
<g>
<path d="M99.0776 36.5062C99.1786 39.4356 99.9362 41.6411 101.35 43.1227C102.798 44.6042 104.617 45.345 106.805 45.345C108.118 45.345 109.314 45.1598 110.391 44.7894C111.502 44.3854 112.681 43.7793 113.927 42.9711L115.897 45.7996C114.651 46.7761 113.22 47.5337 111.603 48.0724C110.021 48.6112 108.421 48.8805 106.805 48.8805C102.967 48.8805 99.9699 47.6347 97.8149 45.143C95.6936 42.6176 94.6329 39.2504 94.6329 35.0415C94.6329 32.3814 95.1043 30.0075 96.0471 27.9199C96.99 25.7986 98.3368 24.1486 100.088 22.9701C101.839 21.7579 103.876 21.1519 106.199 21.1519C109.566 21.1519 112.21 22.3304 114.129 24.6874C116.082 27.0107 117.058 30.1927 117.058 34.2333C117.058 35.0078 117.025 35.7654 116.957 36.5062H99.0776ZM106.25 24.6369C104.196 24.6369 102.529 25.3777 101.249 26.8592C99.9699 28.3071 99.246 30.4453 99.0776 33.2737H112.917C112.883 30.4789 112.277 28.3408 111.098 26.8592C109.92 25.3777 108.304 24.6369 106.25 24.6369Z" fill="#03FF88"/>
</g>
<g>
<path d="M77.8325 41.7591C77.8325 44.1498 79.2972 45.3452 82.2266 45.3452C83.6071 45.3452 85.0887 45.0421 86.6713 44.436L87.7824 47.517C86.0989 48.4261 83.9944 48.8807 81.469 48.8807C79.0783 48.8807 77.159 48.2241 75.7111 46.9109C74.2969 45.5977 73.5898 43.8131 73.5898 41.5571V14.384L65.4076 14.384V11L77.8325 11V41.7591Z" fill="#03FF88"/>
</g>
<g>
<path d="M42.5467 36.5062C42.6477 39.4356 43.4053 41.6411 44.8196 43.1227C46.2674 44.6042 48.0857 45.345 50.2744 45.345C51.5876 45.345 52.7829 45.1598 53.8604 44.7894C54.9716 44.3854 56.1501 43.7793 57.3959 42.9711L59.3657 45.7996C58.1199 46.7761 56.6888 47.5337 55.0726 48.0724C53.49 48.6112 51.8906 48.8805 50.2744 48.8805C46.4358 48.8805 43.439 47.6347 41.284 45.143C39.1627 42.6176 38.1021 39.2504 38.1021 35.0415C38.1021 32.3814 38.5735 30.0075 39.5163 27.9199C40.4591 25.7986 41.8059 24.1486 43.5569 22.9701C45.3078 21.7579 47.3449 21.1519 49.6683 21.1519C53.0355 21.1519 55.6787 22.3304 57.598 24.6874C59.5509 27.0107 60.5274 30.1927 60.5274 34.2333C60.5274 35.0078 60.4937 35.7654 60.4264 36.5062H42.5467ZM49.7188 24.6369C47.6648 24.6369 45.9981 25.3777 44.7185 26.8592C43.439 28.3071 42.7151 30.4453 42.5467 33.2737H56.3858C56.3521 30.4789 55.746 28.3408 54.5675 26.8592C53.389 25.3777 51.7728 24.6369 49.7188 24.6369Z" fill="#03FF88"/>
</g>
<g>
<path d="M32.9708 23.3244C32.9708 25.8161 32.1963 27.8869 30.6474 29.5368C29.0985 31.153 27.0446 32.281 24.4855 32.9208L34.8396 48.3256L29.5868 48.3256L20.0409 33.4259H15.3436L15.3436 48.3256H11L11 13.5259L19.8893 13.5259C24.1993 13.5259 27.4486 14.3508 29.6373 16.0008C31.8596 17.6507 32.9708 20.0919 32.9708 23.3244ZM28.3241 23.3244C28.3241 21.102 27.6843 19.5026 26.4048 18.5261C25.1253 17.5497 23.1218 17.0614 20.3944 17.0614H15.3436L15.3436 29.9914H20.4449C23.0376 29.9914 24.9906 29.4695 26.3038 28.4256C27.6507 27.3481 28.3241 25.6477 28.3241 23.3244Z" fill="#03FF88"/>
</g>
<path d="M277.476 96.3079V69.6904H281.769V90.0955C282.005 89.6241 282.325 89.119 282.729 88.5803C283.133 88.0079 283.453 87.5701 283.688 87.2671L296.568 69.6904H300.81V96.3079H296.517V75.9029C296.248 76.4079 295.945 76.8793 295.608 77.3171C295.305 77.7548 295.019 78.1589 294.749 78.5293L281.668 96.3079H277.476ZM289.497 65.9529C286.837 65.9529 284.749 65.3804 283.234 64.2356C281.752 63.0908 280.978 61.424 280.91 59.2354H284.85C284.917 60.4139 285.355 61.2725 286.163 61.8112C287.005 62.35 288.133 62.6194 289.547 62.6194C290.961 62.6194 292.073 62.35 292.881 61.8112C293.722 61.2725 294.177 60.4139 294.244 59.2354H298.184C298.15 60.6832 297.78 61.9123 297.073 62.9224C296.366 63.9326 295.372 64.6902 294.093 65.1952C292.813 65.7003 291.281 65.9529 289.497 65.9529Z" fill="#F0EEEA" fill-opacity="0.9"/>
<path d="M261.078 96.6108C258.283 96.6108 255.943 96.0384 254.057 94.8936C252.172 93.715 250.757 92.0988 249.815 90.0448C248.905 87.9908 248.451 85.6507 248.451 83.0243C248.451 80.3642 248.905 78.024 249.815 76.0037C250.757 73.9497 252.172 72.3335 254.057 71.155C255.943 69.9765 258.317 69.3872 261.179 69.3872C263.974 69.3872 266.297 69.9765 268.149 71.155C270.034 72.3335 271.432 73.9497 272.341 76.0037C273.284 78.024 273.755 80.3642 273.755 83.0243C273.755 85.6507 273.284 87.9908 272.341 90.0448C271.398 92.0988 269.984 93.715 268.098 94.8936C266.246 96.0384 263.906 96.6108 261.078 96.6108ZM261.078 92.8227C263.031 92.8227 264.613 92.385 265.826 91.5095C267.071 90.6341 267.981 89.4556 268.553 87.974C269.159 86.4925 269.462 84.8425 269.462 83.0243C269.462 81.206 269.159 79.5561 268.553 78.0745C267.981 76.593 267.071 75.4145 265.826 74.539C264.613 73.6635 263.031 73.2258 261.078 73.2258C259.159 73.2258 257.576 73.6635 256.33 74.539C255.118 75.4145 254.209 76.593 253.603 78.0745C253.03 79.5561 252.744 81.206 252.744 83.0243C252.744 84.8425 253.03 86.4925 253.603 87.974C254.209 89.4556 255.118 90.6341 256.33 91.5095C257.576 92.385 259.159 92.8227 261.078 92.8227Z" fill="#F0EEEA" fill-opacity="0.9"/>
<path d="M222.774 96.3079V69.6904H227.068V81.3577H240.402V69.6904H244.695V96.3079H240.402V85.1458H227.068V96.3079H222.774Z" fill="#F0EEEA" fill-opacity="0.9"/>
<path d="M207.357 96.6108C204.529 96.6108 202.189 96.0384 200.337 94.8936C198.485 93.715 197.104 92.0988 196.195 90.0448C195.286 87.9908 194.831 85.6507 194.831 83.0243C194.831 80.3642 195.303 78.024 196.246 76.0037C197.222 73.9497 198.636 72.3335 200.488 71.155C202.34 69.9765 204.613 69.3872 207.307 69.3872C209.293 69.3872 211.027 69.7744 212.509 70.5489C214.024 71.2897 215.27 72.2998 216.247 73.5793C217.257 74.8589 217.981 76.2899 218.418 77.8725C218.89 79.4551 219.092 81.0881 219.024 82.7717C218.991 83.0748 218.974 83.3778 218.974 83.6809C218.974 83.9839 218.957 84.287 218.923 84.59H199.175C199.31 86.1389 199.697 87.5363 200.337 88.7821C200.976 90.028 201.886 91.0213 203.064 91.7621C204.243 92.4692 205.707 92.8227 207.458 92.8227C208.334 92.8227 209.209 92.7217 210.085 92.5197C210.994 92.284 211.802 91.8968 212.509 91.358C213.25 90.8193 213.772 90.0953 214.075 89.1862H218.469C218.065 90.9035 217.307 92.3177 216.196 93.4288C215.085 94.5063 213.755 95.3145 212.206 95.8532C210.657 96.3583 209.041 96.6108 207.357 96.6108ZM199.276 80.8524H214.681C214.647 79.3372 214.31 78.0072 213.671 76.8623C213.031 75.7175 212.155 74.8252 211.044 74.1854C209.967 73.5457 208.67 73.2258 207.155 73.2258C205.505 73.2258 204.108 73.5793 202.963 74.2864C201.852 74.9936 200.993 75.9195 200.387 77.0644C199.781 78.2092 199.411 79.4719 199.276 80.8524Z" fill="#F0EEEA" fill-opacity="0.9"/>
<path d="M189.173 104.49V96.3079H168.364V69.6904H172.657V92.5704H185.536V69.6904H189.88V92.5704H193.365V104.49H189.173Z" fill="#F0EEEA" fill-opacity="0.9"/>
<path d="M128.706 96.3079V69.6904H132.999V90.0955C133.234 89.6241 133.554 89.119 133.958 88.5803C134.362 88.0079 134.682 87.5701 134.918 87.2671L147.797 69.6904H152.04V96.3079H147.747V75.9029C147.478 76.4079 147.174 76.8793 146.838 77.3171C146.535 77.7548 146.249 78.1589 145.979 78.5293L132.898 96.3079H128.706ZM140.726 65.9529C138.066 65.9529 135.979 65.3804 134.463 64.2356C132.982 63.0908 132.207 61.424 132.14 59.2354H136.08C136.147 60.4139 136.585 61.2725 137.393 61.8112C138.235 62.35 139.363 62.6194 140.777 62.6194C142.191 62.6194 143.302 62.35 144.11 61.8112C144.952 61.2725 145.407 60.4139 145.474 59.2354H149.414C149.38 60.6832 149.01 61.9123 148.303 62.9224C147.595 63.9326 146.602 64.6902 145.323 65.1952C144.043 65.7003 142.511 65.9529 140.726 65.9529Z" fill="#F0EEEA" fill-opacity="0.9"/>
<path d="M112.304 96.6108C109.51 96.6108 107.169 96.0384 105.284 94.8936C103.398 93.715 101.984 92.0988 101.041 90.0448C100.132 87.9908 99.6774 85.6507 99.6774 83.0243C99.6774 80.3642 100.132 78.024 101.041 76.0037C101.984 73.9497 103.398 72.3335 105.284 71.155C107.169 69.9765 109.543 69.3872 112.405 69.3872C115.2 69.3872 117.523 69.9765 119.375 71.155C121.261 72.3335 122.658 73.9497 123.567 76.0037C124.51 78.024 124.982 80.3642 124.982 83.0243C124.982 85.6507 124.51 87.9908 123.567 90.0448C122.625 92.0988 121.21 93.715 119.325 94.8936C117.473 96.0384 115.133 96.6108 112.304 96.6108ZM112.304 92.8227C114.257 92.8227 115.84 92.385 117.052 91.5095C118.298 90.6341 119.207 89.4556 119.779 87.974C120.385 86.4925 120.689 84.8425 120.689 83.0243C120.689 81.206 120.385 79.5561 119.779 78.0745C119.207 76.593 118.298 75.4145 117.052 74.539C115.84 73.6635 114.257 73.2258 112.304 73.2258C110.385 73.2258 108.802 73.6635 107.557 74.539C106.344 75.4145 105.435 76.593 104.829 78.0745C104.257 79.5561 103.971 81.206 103.971 83.0243C103.971 84.8425 104.257 86.4925 104.829 87.974C105.435 89.4556 106.344 90.6341 107.557 91.5095C108.802 92.385 110.385 92.8227 112.304 92.8227Z" fill="#F0EEEA" fill-opacity="0.9"/>
<path d="M84.8199 96.611C83.1363 96.611 81.6379 96.3753 80.3247 95.9039C79.0115 95.3988 77.8835 94.7085 76.9407 93.8331C75.9979 92.9239 75.2234 91.8633 74.6173 90.6511C74.0113 89.4052 73.5567 88.0584 73.2536 86.6105C72.9506 85.1626 72.7991 83.6305 72.7991 82.0143C72.7991 79.4215 72.8496 77.014 72.9506 74.7917C73.0853 72.5357 73.4557 70.5322 74.0618 68.7813C74.6679 66.9967 75.6948 65.5151 77.1427 64.3366C78.5906 63.1581 80.6277 62.3331 83.2541 61.8617C84.601 61.626 85.931 61.424 87.2442 61.2556C88.5574 61.0873 89.8875 60.9189 91.2343 60.7506C91.6721 60.6832 92.1266 60.6159 92.598 60.5485C93.0694 60.4812 93.5577 60.397 94.0628 60.296C94.6015 60.195 95.1066 60.1108 95.578 60.0435V63.9831C95.2076 64.1177 94.8035 64.2356 94.3658 64.3366C93.9617 64.4039 93.524 64.4713 93.0526 64.5386C92.6149 64.606 92.1603 64.6565 91.6889 64.6902C91.2512 64.7238 90.8134 64.7743 90.3757 64.8417C89.938 64.8754 89.5171 64.9259 89.113 64.9932C87.9345 65.1279 86.6887 65.2626 85.3755 65.3973C84.0623 65.4983 82.8164 65.7677 81.6379 66.2054C80.4931 66.6094 79.5166 67.4007 78.7085 68.5792C78.3044 69.1853 77.9508 69.9093 77.6478 70.7511C77.3784 71.5929 77.1764 72.4515 77.0417 73.327C76.9407 74.1688 76.8733 74.9769 76.8397 75.7513C77.5131 74.8085 78.3381 74.0509 79.3145 73.4785C80.291 72.8724 81.3348 72.4347 82.446 72.1653C83.5572 71.8622 84.6178 71.7107 85.628 71.7107C88.0524 71.7107 90.1063 72.2158 91.7899 73.2259C93.4735 74.2024 94.753 75.5998 95.6285 77.4181C96.504 79.2364 96.9417 81.3577 96.9417 83.782C96.9417 86.2064 96.4703 88.3951 95.5275 90.348C94.5847 92.2673 93.2041 93.7994 91.3859 94.9442C89.6013 96.0554 87.4126 96.611 84.8199 96.611ZM84.9209 92.8229C86.6045 92.8229 88.0187 92.4188 89.1635 91.6107C90.3084 90.8026 91.167 89.7251 91.7394 88.3782C92.3455 87.0314 92.6485 85.5498 92.6485 83.9336C92.6485 82.351 92.3455 80.9368 91.7394 79.6909C91.167 78.4114 90.3084 77.4012 89.1635 76.6605C88.0524 75.9197 86.6718 75.5493 85.0219 75.5493C83.4057 75.5493 82.0083 75.9365 80.8298 76.711C79.6849 77.4854 78.7926 78.5292 78.1529 79.8424C77.5468 81.122 77.2437 82.5193 77.2437 84.0346C77.2437 85.5835 77.5299 87.0314 78.1024 88.3782C78.6748 89.7251 79.5166 90.8026 80.6277 91.6107C81.7726 92.4188 83.2036 92.8229 84.9209 92.8229Z" fill="#F0EEEA" fill-opacity="0.9"/>
<path d="M57.0448 96.6108C53.1388 96.6108 50.1926 95.5333 48.2059 93.3783C46.2193 91.1897 45.0913 88.3612 44.8219 84.893H39.7712L39.7712 96.3078H35.478L35.478 69.6903H39.7712V81.1555H44.8219C45.024 78.8321 45.5795 76.795 46.4887 75.0441C47.4315 73.2595 48.7784 71.8789 50.5293 70.9024C52.2802 69.8923 54.452 69.3872 57.0448 69.3872C59.8732 69.3872 62.2134 69.9765 64.0653 71.155C65.9173 72.3335 67.2978 73.9497 68.2069 76.0037C69.1161 78.024 69.5706 80.3642 69.5706 83.0243C69.5706 85.6507 69.1161 87.9908 68.2069 90.0448C67.2978 92.0988 65.9173 93.715 64.0653 94.8936C62.2134 96.0384 59.8732 96.6108 57.0448 96.6108ZM57.0448 92.8227C58.9977 92.8227 60.5635 92.385 61.742 91.5095C62.9541 90.6341 63.8464 89.4556 64.4189 87.974C64.9913 86.4925 65.2775 84.8425 65.2775 83.0243C65.2775 81.206 64.9913 79.5561 64.4189 78.0745C63.8464 76.593 62.9541 75.4145 61.742 74.539C60.5635 73.6635 58.9977 73.2258 57.0448 73.2258C55.1255 73.2258 53.5597 73.6635 52.3476 74.539C51.169 75.4145 50.3104 76.593 49.7717 78.0745C49.2329 79.5561 48.9636 81.206 48.9636 83.0243C48.9636 84.8425 49.2329 86.4925 49.7717 87.974C50.3104 89.4556 51.169 90.6341 52.3476 91.5095C53.5597 92.385 55.1255 92.8227 57.0448 92.8227Z" fill="#F0EEEA" fill-opacity="0.9"/>
<path d="M6.8103 96.3584L6.8103 92.6209C7.48374 92.6209 8.08983 92.4862 8.62857 92.2168C9.16732 91.9138 9.63873 91.476 10.0428 90.9036C10.5142 90.2302 10.8846 89.2537 11.154 87.9742C11.4233 86.6947 11.6085 85.331 11.7095 83.8831C11.8442 82.2668 11.9452 80.6843 12.0126 79.1354C12.0799 77.5528 12.1304 75.987 12.1641 74.4381C12.2314 72.8892 12.2651 71.3067 12.2651 69.6904H30.7509L30.7509 96.3079H26.4577L26.4577 73.4785H16.4572C16.4236 74.6233 16.3731 75.785 16.3057 76.9635C16.2721 78.1084 16.2215 79.27 16.1542 80.4486C16.1205 81.5934 16.07 82.7551 16.0027 83.9336C15.969 85.2804 15.8343 86.7957 15.5986 88.4793C15.3629 90.1629 14.8578 91.6949 14.0834 93.0755C13.3426 94.3887 12.4335 95.2641 11.356 95.7019C10.3122 96.1396 8.79693 96.3584 6.8103 96.3584Z" fill="#F0EEEA" fill-opacity="0.9"/>
<rect x="210.405" y="7.91895" width="27.7792" height="42.9315" fill="#03FF88"/>
<defs>
<filter id="filter0_d_2889_1096671" x="168.427" y="10.1519" width="44.4254" height="49.7285" filterUnits="userSpaceOnUse" color-interpolation-filters="sRGB">
<feFlood flood-opacity="0" result="BackgroundImageFix"/>
<feColorMatrix in="SourceAlpha" type="matrix" values="0 0 0 0 0 0 0 0 0 0 0 0 0 0 0 0 0 0 127 0" result="hardAlpha"/>
<feOffset/>
<feGaussianBlur stdDeviation="5.5"/>
<feComposite in2="hardAlpha" operator="out"/>
<feColorMatrix type="matrix" values="0 0 0 0 0.0117647 0 0 0 0 1 0 0 0 0 0.533333 0 0 0 0.7 0"/>
<feBlend mode="normal" in2="BackgroundImageFix" result="effect1_dropShadow_2889_1096671"/>
<feBlend mode="normal" in="SourceGraphic" in2="effect1_dropShadow_2889_1096671" result="shape"/>
</filter>
<filter id="filter1_d_2889_1096671" x="139.91" y="10.1519" width="43.5668" height="49.7285" filterUnits="userSpaceOnUse" color-interpolation-filters="sRGB">
<feFlood flood-opacity="0" result="BackgroundImageFix"/>
<feColorMatrix in="SourceAlpha" type="matrix" values="0 0 0 0 0 0 0 0 0 0 0 0 0 0 0 0 0 0 127 0" result="hardAlpha"/>
<feOffset/>
<feGaussianBlur stdDeviation="5.5"/>
<feComposite in2="hardAlpha" operator="out"/>
<feColorMatrix type="matrix" values="0 0 0 0 0.0117647 0 0 0 0 1 0 0 0 0 0.533333 0 0 0 0.7 0"/>
<feBlend mode="normal" in2="BackgroundImageFix" result="effect1_dropShadow_2889_1096671"/>
<feBlend mode="normal" in="SourceGraphic" in2="effect1_dropShadow_2889_1096671" result="shape"/>
</filter>
<filter id="filter2_d_2889_1096671" x="111.393" y="10.1519" width="44.8295" height="49.7793" filterUnits="userSpaceOnUse" color-interpolation-filters="sRGB">
<feFlood flood-opacity="0" result="BackgroundImageFix"/>
<feColorMatrix in="SourceAlpha" type="matrix" values="0 0 0 0 0 0 0 0 0 0 0 0 0 0 0 0 0 0 127 0" result="hardAlpha"/>
<feOffset/>
<feGaussianBlur stdDeviation="5.5"/>
<feComposite in2="hardAlpha" operator="out"/>
<feColorMatrix type="matrix" values="0 0 0 0 0.0117647 0 0 0 0 1 0 0 0 0 0.533333 0 0 0 0.7 0"/>
<feBlend mode="normal" in2="BackgroundImageFix" result="effect1_dropShadow_2889_1096671"/>
<feBlend mode="normal" in="SourceGraphic" in2="effect1_dropShadow_2889_1096671" result="shape"/>
</filter>
<filter id="filter3_d_2889_1096671" x="83.6329" y="10.1519" width="44.4254" height="49.7285" filterUnits="userSpaceOnUse" color-interpolation-filters="sRGB">
<feFlood flood-opacity="0" result="BackgroundImageFix"/>
<feColorMatrix in="SourceAlpha" type="matrix" values="0 0 0 0 0 0 0 0 0 0 0 0 0 0 0 0 0 0 127 0" result="hardAlpha"/>
<feOffset/>
<feGaussianBlur stdDeviation="5.5"/>
<feComposite in2="hardAlpha" operator="out"/>
<feColorMatrix type="matrix" values="0 0 0 0 0.0117647 0 0 0 0 1 0 0 0 0 0.533333 0 0 0 0.7 0"/>
<feBlend mode="normal" in2="BackgroundImageFix" result="effect1_dropShadow_2889_1096671"/>
<feBlend mode="normal" in="SourceGraphic" in2="effect1_dropShadow_2889_1096671" result="shape"/>
</filter>
<filter id="filter4_d_2889_1096671" x="54.4076" y="0" width="44.3749" height="59.8809" filterUnits="userSpaceOnUse" color-interpolation-filters="sRGB">
<feFlood flood-opacity="0" result="BackgroundImageFix"/>
<feColorMatrix in="SourceAlpha" type="matrix" values="0 0 0 0 0 0 0 0 0 0 0 0 0 0 0 0 0 0 127 0" result="hardAlpha"/>
<feOffset/>
<feGaussianBlur stdDeviation="5.5"/>
<feComposite in2="hardAlpha" operator="out"/>
<feColorMatrix type="matrix" values="0 0 0 0 0.0117647 0 0 0 0 1 0 0 0 0 0.533333 0 0 0 0.7 0"/>
<feBlend mode="normal" in2="BackgroundImageFix" result="effect1_dropShadow_2889_1096671"/>
<feBlend mode="normal" in="SourceGraphic" in2="effect1_dropShadow_2889_1096671" result="shape"/>
</filter>
<filter id="filter5_d_2889_1096671" x="27.1021" y="10.1519" width="44.4254" height="49.7285" filterUnits="userSpaceOnUse" color-interpolation-filters="sRGB">
<feFlood flood-opacity="0" result="BackgroundImageFix"/>
<feColorMatrix in="SourceAlpha" type="matrix" values="0 0 0 0 0 0 0 0 0 0 0 0 0 0 0 0 0 0 127 0" result="hardAlpha"/>
<feOffset/>
<feGaussianBlur stdDeviation="5.5"/>
<feComposite in2="hardAlpha" operator="out"/>
<feColorMatrix type="matrix" values="0 0 0 0 0.0117647 0 0 0 0 1 0 0 0 0 0.533333 0 0 0 0.7 0"/>
<feBlend mode="normal" in2="BackgroundImageFix" result="effect1_dropShadow_2889_1096671"/>
<feBlend mode="normal" in="SourceGraphic" in2="effect1_dropShadow_2889_1096671" result="shape"/>
</filter>
<filter id="filter6_d_2889_1096671" x="0" y="2.52588" width="45.8396" height="56.7998" filterUnits="userSpaceOnUse" color-interpolation-filters="sRGB">
<feFlood flood-opacity="0" result="BackgroundImageFix"/>
<feColorMatrix in="SourceAlpha" type="matrix" values="0 0 0 0 0 0 0 0 0 0 0 0 0 0 0 0 0 0 127 0" result="hardAlpha"/>
<feOffset/>
<feGaussianBlur stdDeviation="5.5"/>
<feComposite in2="hardAlpha" operator="out"/>
<feColorMatrix type="matrix" values="0 0 0 0 0.0117647 0 0 0 0 1 0 0 0 0 0.533333 0 0 0 0.7 0"/>
<feBlend mode="normal" in2="BackgroundImageFix" result="effect1_dropShadow_2889_1096671"/>
<feBlend mode="normal" in="SourceGraphic" in2="effect1_dropShadow_2889_1096671" result="shape"/>
</filter>
</defs>
</svg>
