<svg width="301" height="115" viewBox="0 0 301 115" fill="none" xmlns="http://www.w3.org/2000/svg">
<path d="M183.872 36.5062C183.973 39.4356 184.731 41.6411 186.145 43.1227C187.593 44.6042 189.411 45.345 191.6 45.345C192.913 45.345 194.108 45.1598 195.186 44.7894C196.297 44.3854 197.475 43.7793 198.721 42.9711L200.691 45.7996C199.445 46.7761 198.014 47.5337 196.398 48.0724C194.815 48.6112 193.216 48.8805 191.6 48.8805C187.761 48.8805 184.764 47.6347 182.609 45.143C180.488 42.6176 179.427 39.2504 179.427 35.0415C179.427 32.3814 179.899 30.0075 180.842 27.9199C181.784 25.7986 183.131 24.1486 184.882 22.9701C186.633 21.7579 188.67 21.1519 190.994 21.1519C194.361 21.1519 197.004 22.3304 198.923 24.6874C200.876 27.0107 201.853 30.1927 201.853 34.2333C201.853 35.0078 201.819 35.7654 201.752 36.5062H183.872ZM191.044 24.6369C188.99 24.6369 187.323 25.3777 186.044 26.8592C184.764 28.3071 184.04 30.4453 183.872 33.2737H197.711C197.677 30.4789 197.071 28.3408 195.893 26.8592C194.714 25.3777 193.098 24.6369 191.044 24.6369Z" fill="#03FF88"/>
<path d="M161.314 45.3955C163.335 45.3955 164.934 45.0083 166.113 44.2338C167.291 43.4594 167.88 42.4324 167.88 41.1529C167.88 40.2774 167.729 39.5703 167.426 39.0316C167.123 38.4591 166.517 37.9541 165.607 37.5163C164.698 37.0449 163.318 36.5735 161.466 36.1021C158.368 35.3277 156.078 34.4017 154.597 33.3242C153.115 32.213 152.375 30.5799 152.375 28.425C152.375 26.2026 153.3 24.4349 155.152 23.1217C157.004 21.8085 159.446 21.1519 162.476 21.1519C166.18 21.1519 169.412 22.1283 172.173 24.0813L170.254 27.0107C169.143 26.2363 167.981 25.647 166.769 25.243C165.557 24.8052 164.16 24.5864 162.577 24.5864C158.738 24.5864 156.819 25.748 156.819 28.0714C156.819 28.8795 157.021 29.5361 157.425 30.0412C157.863 30.5463 158.553 31.0008 159.496 31.4049C160.473 31.7753 161.92 32.2299 163.84 32.7686C166.735 33.5431 168.89 34.5364 170.305 35.7486C171.753 36.9271 172.477 38.6612 172.477 40.9508C172.477 43.6109 171.399 45.5975 169.244 46.9107C167.089 48.2239 164.446 48.8805 161.314 48.8805C157.139 48.8805 153.671 47.6852 150.91 45.2945L153.284 42.5166C154.361 43.392 155.59 44.0992 156.971 44.6379C158.351 45.143 159.799 45.3955 161.314 45.3955Z" fill="#03FF88"/>
<path d="M143.05 42.5166C143.05 43.5604 143.219 44.3349 143.555 44.8399C143.892 45.3113 144.448 45.6649 145.222 45.9006L144.161 48.931C141.569 48.5943 139.952 47.3316 139.313 45.143C138.37 46.3552 137.174 47.2811 135.727 47.9209C134.312 48.5607 132.73 48.8805 130.979 48.8805C128.319 48.8805 126.214 48.1398 124.665 46.6582C123.15 45.1766 122.393 43.19 122.393 40.6983C122.393 37.9709 123.453 35.8664 125.575 34.3849C127.73 32.9033 130.811 32.1625 134.817 32.1625H138.757V29.9907C138.757 28.1051 138.218 26.7582 137.141 25.9501C136.063 25.1083 134.498 24.6874 132.444 24.6874C130.423 24.6874 128.117 25.142 125.524 26.0511L124.362 22.8186C127.494 21.7074 130.406 21.1519 133.1 21.1519C136.333 21.1519 138.791 21.9095 140.474 23.4247C142.192 24.9399 143.05 27.0444 143.05 29.7382V42.5166ZM132.04 45.6986C133.353 45.6986 134.599 45.3618 135.777 44.6884C136.989 44.015 137.983 43.089 138.757 41.9105V35.092H134.918C132.09 35.092 130.053 35.5634 128.807 36.5062C127.561 37.449 126.938 38.8295 126.938 40.6478C126.938 44.015 128.639 45.6986 132.04 45.6986Z" fill="#03FF88"/>
<path d="M99.0775 36.5062C99.1785 39.4356 99.9361 41.6411 101.35 43.1227C102.798 44.6042 104.617 45.345 106.805 45.345C108.118 45.345 109.314 45.1598 110.391 44.7894C111.502 44.3854 112.681 43.7793 113.927 42.9711L115.897 45.7996C114.651 46.7761 113.22 47.5337 111.603 48.0724C110.021 48.6112 108.421 48.8805 106.805 48.8805C102.967 48.8805 99.9698 47.6347 97.8148 45.143C95.6935 42.6176 94.6328 39.2504 94.6328 35.0415C94.6328 32.3814 95.1042 30.0075 96.047 27.9199C96.9899 25.7986 98.3367 24.1486 100.088 22.9701C101.839 21.7579 103.876 21.1519 106.199 21.1519C109.566 21.1519 112.21 22.3304 114.129 24.6874C116.082 27.0107 117.058 30.1927 117.058 34.2333C117.058 35.0078 117.025 35.7654 116.957 36.5062H99.0775ZM106.25 24.6369C104.196 24.6369 102.529 25.3777 101.249 26.8592C99.9698 28.3071 99.2459 30.4453 99.0775 33.2737H112.917C112.883 30.4789 112.277 28.3408 111.098 26.8592C109.92 25.3777 108.304 24.6369 106.25 24.6369Z" fill="#03FF88"/>
<path d="M77.8321 41.7591C77.8321 44.1498 79.2968 45.3452 82.2262 45.3452C83.6067 45.3452 85.0883 45.0421 86.6709 44.436L87.782 47.517C86.0985 48.4261 83.994 48.8807 81.4686 48.8807C79.0779 48.8807 77.1586 48.2241 75.7107 46.9109C74.2965 45.5977 73.5894 43.8131 73.5894 41.5571V14.384H65.4072V11H77.8321V41.7591Z" fill="#03FF88"/>
<path d="M42.5471 36.5062C42.6481 39.4356 43.4057 41.6411 44.82 43.1227C46.2678 44.6042 48.0861 45.345 50.2748 45.345C51.588 45.345 52.7833 45.1598 53.8608 44.7894C54.972 44.3854 56.1505 43.7793 57.3963 42.9711L59.3661 45.7996C58.1203 46.7761 56.6892 47.5337 55.073 48.0724C53.4904 48.6112 51.891 48.8805 50.2748 48.8805C46.4362 48.8805 43.4394 47.6347 41.2844 45.143C39.1631 42.6176 38.1025 39.2504 38.1025 35.0415C38.1025 32.3814 38.5739 30.0075 39.5167 27.9199C40.4595 25.7986 41.8063 24.1486 43.5573 22.9701C45.3082 21.7579 47.3453 21.1519 49.6687 21.1519C53.0359 21.1519 55.6791 22.3304 57.5984 24.6874C59.5513 27.0107 60.5278 30.1927 60.5278 34.2333C60.5278 35.0078 60.4941 35.7654 60.4268 36.5062H42.5471ZM49.7192 24.6369C47.6652 24.6369 45.9985 25.3777 44.7189 26.8592C43.4394 28.3071 42.7155 30.4453 42.5471 33.2737H56.3862C56.3525 30.4789 55.7464 28.3408 54.5679 26.8592C53.3894 25.3777 51.7732 24.6369 49.7192 24.6369Z" fill="#03FF88"/>
<path d="M32.9708 23.3244C32.9708 25.8161 32.1963 27.8869 30.6474 29.5368C29.0985 31.153 27.0446 32.281 24.4855 32.9208L34.8396 48.3256H29.5868L20.0409 33.4259H15.3436V48.3256H11V13.5259H19.8893C24.1993 13.5259 27.4486 14.3508 29.6373 16.0008C31.8596 17.6507 32.9708 20.0919 32.9708 23.3244ZM28.3241 23.3244C28.3241 21.102 27.6843 19.5026 26.4048 18.5261C25.1253 17.5497 23.1218 17.0614 20.3944 17.0614H15.3436V29.9914H20.4449C23.0376 29.9914 24.9906 29.4695 26.3038 28.4256C27.6507 27.3481 28.3241 25.6477 28.3241 23.3244Z" fill="#03FF88"/>
<path d="M238.184 7.91895H210.405V50.8504H238.184V7.91895Z" fill="#03FF88"/>
<path d="M260.456 95.9353C258.416 95.9353 256.767 95.6293 255.509 95.0173C254.285 94.4053 253.384 93.4533 252.806 92.1613C252.262 90.8693 251.99 89.2373 251.99 87.2653V72.8833H247.604V69.0583H251.99V61.0513H256.325V69.0583H263.516V72.8833H256.325V86.8063C256.325 88.6423 256.648 90.0023 257.294 90.8863C257.974 91.7363 259.334 92.1613 261.374 92.1613H263.363V95.9353H260.456Z" fill="#D9DAD5"/>
<path d="M234.904 96.241C233.68 96.241 232.439 96.122 231.181 95.884C229.957 95.646 228.801 95.238 227.713 94.66C226.659 94.082 225.775 93.3 225.061 92.314C224.347 91.328 223.888 90.104 223.684 88.642H228.07C228.41 89.56 228.954 90.308 229.702 90.886C230.484 91.43 231.351 91.821 232.303 92.059C233.289 92.297 234.224 92.416 235.108 92.416C235.652 92.416 236.281 92.382 236.995 92.314C237.709 92.246 238.389 92.093 239.035 91.855C239.715 91.583 240.259 91.192 240.667 90.682C241.109 90.172 241.33 89.458 241.33 88.54C241.33 87.86 241.177 87.299 240.871 86.857C240.565 86.415 240.14 86.058 239.596 85.786C239.052 85.48 238.389 85.259 237.607 85.123C236.009 84.783 234.292 84.46 232.456 84.154C230.654 83.848 229.056 83.27 227.662 82.42C227.186 82.114 226.744 81.774 226.336 81.4C225.962 80.992 225.639 80.55 225.367 80.074C225.095 79.564 224.874 79.02 224.704 78.442C224.568 77.83 224.5 77.167 224.5 76.453C224.5 75.127 224.755 73.988 225.265 73.036C225.809 72.05 226.557 71.251 227.509 70.639C228.461 69.993 229.549 69.517 230.773 69.211C232.031 68.905 233.374 68.752 234.802 68.752C236.57 68.752 238.151 69.041 239.545 69.619C240.973 70.163 242.146 70.979 243.064 72.067C243.982 73.121 244.526 74.43 244.696 75.994H240.667C240.429 75.008 239.783 74.209 238.729 73.597C237.675 72.951 236.332 72.628 234.7 72.628C234.156 72.628 233.544 72.679 232.864 72.781C232.184 72.849 231.538 73.019 230.926 73.291C230.314 73.529 229.804 73.903 229.396 74.413C228.988 74.889 228.784 75.535 228.784 76.351C228.784 77.099 228.971 77.728 229.345 78.238C229.753 78.748 230.314 79.156 231.028 79.462C231.742 79.768 232.558 80.023 233.476 80.227C234.666 80.465 235.975 80.72 237.403 80.992C238.831 81.23 239.953 81.485 240.769 81.757C241.857 82.097 242.758 82.573 243.472 83.185C244.22 83.797 244.764 84.528 245.104 85.378C245.478 86.228 245.665 87.214 245.665 88.336C245.665 89.934 245.342 91.243 244.696 92.263C244.084 93.283 243.251 94.082 242.197 94.66C241.143 95.238 239.97 95.646 238.678 95.884C237.42 96.122 236.162 96.241 234.904 96.241Z" fill="#D9DAD5"/>
<path d="M207.531 96.241C204.709 96.241 202.346 95.663 200.442 94.507C198.538 93.317 197.11 91.685 196.158 89.611C195.24 87.537 194.781 85.174 194.781 82.522C194.781 79.836 195.257 77.473 196.209 75.433C197.161 73.359 198.589 71.727 200.493 70.537C202.397 69.347 204.777 68.752 207.633 68.752C210.455 68.752 212.801 69.347 214.671 70.537C216.575 71.727 217.986 73.359 218.904 75.433C219.856 77.473 220.332 79.836 220.332 82.522C220.332 85.174 219.856 87.537 218.904 89.611C217.952 91.685 216.524 93.317 214.62 94.507C212.75 95.663 210.387 96.241 207.531 96.241ZM207.531 92.416C209.503 92.416 211.101 91.974 212.325 91.09C213.583 90.206 214.501 89.016 215.079 87.52C215.691 86.024 215.997 84.358 215.997 82.522C215.997 80.686 215.691 79.02 215.079 77.524C214.501 76.028 213.583 74.838 212.325 73.954C211.101 73.07 209.503 72.628 207.531 72.628C205.593 72.628 203.995 73.07 202.737 73.954C201.513 74.838 200.595 76.028 199.983 77.524C199.405 79.02 199.116 80.686 199.116 82.522C199.116 84.358 199.405 86.024 199.983 87.52C200.595 89.016 201.513 90.206 202.737 91.09C203.995 91.974 205.593 92.416 207.531 92.416Z" fill="#D9DAD5"/>
<path d="M180.106 96.241C177.284 96.241 174.938 95.663 173.068 94.507C171.232 93.317 169.855 91.685 168.937 89.611C168.053 87.537 167.611 85.191 167.611 82.573C167.611 80.023 168.07 77.711 168.988 75.637C169.94 73.529 171.368 71.863 173.272 70.639C175.21 69.381 177.658 68.752 180.616 68.752C182.452 68.752 184.084 69.058 185.512 69.67C186.974 70.282 188.181 71.183 189.133 72.373C190.085 73.529 190.748 74.991 191.122 76.759H186.685C186.175 75.263 185.359 74.209 184.237 73.597C183.149 72.951 181.857 72.628 180.361 72.628C178.321 72.628 176.689 73.104 175.465 74.056C174.241 75.008 173.34 76.249 172.762 77.779C172.218 79.275 171.946 80.873 171.946 82.573C171.946 84.341 172.235 85.973 172.813 87.469C173.391 88.965 174.292 90.172 175.516 91.09C176.74 91.974 178.321 92.416 180.259 92.416C181.687 92.416 183.03 92.11 184.288 91.498C185.58 90.886 186.43 89.798 186.838 88.234H191.326C190.986 90.07 190.255 91.583 189.133 92.773C188.045 93.963 186.702 94.847 185.104 95.425C183.54 95.969 181.874 96.241 180.106 96.241Z" fill="#D9DAD5"/>
<path d="M138.327 107.971C136.253 107.971 134.247 107.682 132.309 107.104C130.405 106.526 128.688 105.523 127.158 104.095L129.045 100.678C130.371 101.732 131.782 102.565 133.278 103.177C134.808 103.789 136.406 104.095 138.072 104.095C140.86 104.095 142.849 103.279 144.039 101.647C145.263 100.049 145.875 98.0091 145.875 95.5271V92.3141C145.263 93.2321 144.481 93.9971 143.529 94.6091C142.611 95.1871 141.591 95.6291 140.469 95.9351C139.347 96.2071 138.191 96.3431 137.001 96.3431C134.349 96.3431 132.258 95.8161 130.728 94.7621C129.198 93.7081 128.11 92.2461 127.464 90.3761C126.818 88.5061 126.495 86.3471 126.495 83.8991V69.0581H130.83V82.6751C130.83 83.8991 130.898 85.1061 131.034 86.2961C131.204 87.4521 131.527 88.5061 132.003 89.4581C132.479 90.3761 133.176 91.1241 134.094 91.7021C135.012 92.2461 136.236 92.5181 137.766 92.5181C139.704 92.5181 141.251 92.0421 142.407 91.0901C143.597 90.1381 144.447 88.8631 144.957 87.2651C145.501 85.6671 145.773 83.8991 145.773 81.9611V69.0581H150.108V95.9351C150.108 97.8731 149.853 99.5901 149.343 101.086C148.833 102.582 148.068 103.84 147.048 104.86C146.028 105.88 144.787 106.645 143.325 107.155C141.897 107.699 140.231 107.971 138.327 107.971Z" fill="#D9DAD5"/>
<path d="M97.3828 95.935V69.058H101.565L101.769 73.138C102.381 72.152 103.163 71.336 104.115 70.69C105.067 70.044 106.104 69.568 107.226 69.262C108.382 68.922 109.504 68.752 110.592 68.752C113.21 68.752 115.25 69.296 116.712 70.384C118.208 71.472 119.262 72.951 119.874 74.821C120.52 76.657 120.843 78.748 120.843 81.094V95.935H116.508V82.267C116.508 81.009 116.423 79.802 116.253 78.646C116.117 77.49 115.811 76.453 115.335 75.535C114.893 74.617 114.247 73.903 113.397 73.393C112.547 72.849 111.408 72.577 109.98 72.577C108.212 72.577 106.699 73.07 105.441 74.056C104.217 75.042 103.282 76.368 102.636 78.034C102.024 79.7 101.718 81.57 101.718 83.644V95.935H97.3828Z" fill="#D9DAD5"/>
<path d="M78.7333 96.241C77.5093 96.241 76.3193 96.088 75.1633 95.782C74.0413 95.442 73.0213 94.949 72.1033 94.303C71.2193 93.623 70.5053 92.79 69.9613 91.804C69.4513 90.784 69.1963 89.611 69.1963 88.285C69.1963 86.755 69.4683 85.463 70.0123 84.409C70.5903 83.355 71.3553 82.522 72.3073 81.91C73.2593 81.298 74.3643 80.856 75.6223 80.584C76.8803 80.312 78.1893 80.176 79.5493 80.176H87.4543C87.4543 78.646 87.2333 77.32 86.7913 76.198C86.3833 75.076 85.7033 74.209 84.7513 73.597C83.7993 72.951 82.5413 72.628 80.9773 72.628C80.0253 72.628 79.1413 72.73 78.3253 72.934C77.5093 73.138 76.8123 73.461 76.2343 73.903C75.6563 74.345 75.2313 74.94 74.9593 75.688H70.3183C70.5563 74.464 71.0153 73.427 71.6953 72.577C72.4093 71.693 73.2593 70.979 74.2453 70.435C75.2653 69.857 76.3533 69.432 77.5093 69.16C78.6653 68.888 79.8213 68.752 80.9773 68.752C84.8533 68.752 87.6073 69.891 89.2393 72.169C90.8713 74.447 91.6873 77.524 91.6873 81.4V95.935H88.0663L87.8113 92.518C87.0633 93.538 86.1623 94.32 85.1083 94.864C84.0543 95.408 82.9663 95.765 81.8443 95.935C80.7563 96.139 79.7193 96.241 78.7333 96.241ZM79.1413 92.416C80.8413 92.416 82.3033 92.144 83.5273 91.6C84.7853 91.022 85.7543 90.189 86.4343 89.101C87.1143 88.013 87.4543 86.687 87.4543 85.123V83.797H82.7113C81.5893 83.797 80.4843 83.814 79.3963 83.848C78.3083 83.882 77.3223 84.018 76.4383 84.256C75.5543 84.494 74.8403 84.902 74.2963 85.48C73.7863 86.058 73.5313 86.891 73.5313 87.979C73.5313 88.999 73.7863 89.832 74.2963 90.478C74.8403 91.124 75.5373 91.617 76.3873 91.957C77.2713 92.263 78.1893 92.416 79.1413 92.416Z" fill="#D9DAD5"/>
<path d="M48.285 96.241C45.463 96.241 43.474 95.476 42.318 93.946C41.196 92.416 40.635 90.24 40.635 87.418V72.883H36.249V69.058H40.635V61H44.97V69.058H53.232V72.883H44.97V86.857C44.97 87.877 45.055 88.812 45.225 89.662C45.395 90.478 45.752 91.141 46.296 91.651C46.84 92.127 47.656 92.382 48.744 92.416C49.526 92.416 50.206 92.28 50.784 92.008C51.396 91.736 51.906 91.413 52.314 91.039L54.201 94.201C53.623 94.677 53.011 95.068 52.365 95.374C51.753 95.68 51.107 95.901 50.427 96.037C49.781 96.173 49.067 96.241 48.285 96.241Z" fill="#D9DAD5"/>
<path d="M19.537 96.241C18.313 96.241 17.123 96.088 15.967 95.782C14.845 95.442 13.825 94.949 12.907 94.303C12.023 93.623 11.309 92.79 10.765 91.804C10.255 90.784 10 89.611 10 88.285C10 86.755 10.272 85.463 10.816 84.409C11.394 83.355 12.159 82.522 13.111 81.91C14.063 81.298 15.168 80.856 16.426 80.584C17.684 80.312 18.993 80.176 20.353 80.176H28.258C28.258 78.646 28.037 77.32 27.595 76.198C27.187 75.076 26.507 74.209 25.555 73.597C24.603 72.951 23.345 72.628 21.781 72.628C20.829 72.628 19.945 72.73 19.129 72.934C18.313 73.138 17.616 73.461 17.038 73.903C16.46 74.345 16.035 74.94 15.763 75.688H11.122C11.36 74.464 11.819 73.427 12.499 72.577C13.213 71.693 14.063 70.979 15.049 70.435C16.069 69.857 17.157 69.432 18.313 69.16C19.469 68.888 20.625 68.752 21.781 68.752C25.657 68.752 28.411 69.891 30.043 72.169C31.675 74.447 32.491 77.524 32.491 81.4V95.935H28.87L28.615 92.518C27.867 93.538 26.966 94.32 25.912 94.864C24.858 95.408 23.77 95.765 22.648 95.935C21.56 96.139 20.523 96.241 19.537 96.241ZM19.945 92.416C21.645 92.416 23.107 92.144 24.331 91.6C25.589 91.022 26.558 90.189 27.238 89.101C27.918 88.013 28.258 86.687 28.258 85.123V83.797H23.515C22.393 83.797 21.288 83.814 20.2 83.848C19.112 83.882 18.126 84.018 17.242 84.256C16.358 84.494 15.644 84.902 15.1 85.48C14.59 86.058 14.335 86.891 14.335 87.979C14.335 88.999 14.59 89.832 15.1 90.478C15.644 91.124 16.341 91.617 17.191 91.957C18.075 92.263 18.993 92.416 19.945 92.416Z" fill="#D9DAD5"/>
<rect x="210.405" y="7.91895" width="27.7792" height="42.9315" fill="#03FF88">
<animate attributeName="opacity" values="1;0" keyTimes="0;0.5" calcMode="discrete" dur="1.2s" repeatCount="indefinite"/>
</rect>
</svg>
